<?xml version="1.0" standalone="no"?>
<!DOCTYPE svg PUBLIC "-//W3C//DTD SVG 20010904//EN"
 "http://www.w3.org/TR/2001/REC-SVG-20010904/DTD/svg10.dtd">
<svg version="1.0" xmlns="http://www.w3.org/2000/svg"
 width="1024.000000pt" height="1024.000000pt" viewBox="0 0 1024.000000 1024.000000"
 preserveAspectRatio="xMidYMid meet">
<metadata>
Created by potrace 1.14, written by Peter Selinger 2001-2017
</metadata>
<g transform="translate(0.000000,1024.000000) scale(0.100000,-0.100000)"
fill="#000000" stroke="none">
<path d="M0 5120 l0 -5120 1420 0 c940 0 1420 3 1420 10 0 6 9 10 21 10 15 0
19 5 15 16 -3 8 -2 12 4 9 5 -3 16 7 24 23 8 16 31 45 51 63 19 19 75 73 123
122 48 48 106 96 130 107 23 11 42 25 42 30 0 6 9 10 19 10 25 0 44 -51 31
-86 -10 -26 -13 -70 -3 -46 7 17 33 15 33 -4 0 -33 -74 -148 -144 -221 l-40
-43 28 0 c15 0 37 5 48 11 15 8 19 8 14 0 -5 -8 17 -11 73 -11 45 0 81 3 81 8
0 4 19 30 41 57 23 28 58 83 77 123 47 98 57 101 49 16 l-7 -68 23 32 c30 44
48 42 36 -3 -13 -45 -46 -100 -83 -136 l-28 -29 1131 0 1130 0 10 38 c33 120
42 161 71 302 53 259 76 308 185 388 33 24 70 62 84 85 63 108 134 170 235
203 74 25 91 39 148 120 27 41 54 72 58 69 10 -6 -31 -92 -59 -124 -26 -30
-19 -41 26 -41 26 0 36 5 40 20 3 11 9 20 13 20 11 0 60 48 60 59 0 6 10 16
23 22 12 7 22 12 22 11 0 -1 10 1 23 4 13 4 22 14 22 26 0 18 5 19 40 13 26
-4 40 -3 40 4 0 14 27 14 36 0 4 -7 -9 -27 -30 -46 -20 -19 -36 -38 -36 -44 0
-5 -9 -9 -20 -9 -11 0 -20 -4 -20 -8 0 -4 -9 -8 -20 -9 -11 -1 -35 -9 -52 -17
-17 -9 -37 -16 -43 -16 -7 0 -18 -7 -25 -15 -11 -13 -1 -15 76 -17 133 -3 313
0 364 6 25 3 88 10 140 16 52 6 120 15 150 20 30 4 87 13 125 19 39 7 81 14
95 16 69 14 212 31 279 34 23 1 24 2 6 21 -10 11 -13 20 -7 20 6 0 16 -9 22
-21 10 -18 17 -20 53 -13 23 4 75 7 115 6 65 -1 72 0 72 18 0 13 7 20 20 20
11 0 20 -4 20 -10 0 -15 65 -12 145 6 39 8 88 19 110 24 71 16 159 12 207 -10
72 -31 74 -40 23 -89 -25 -24 -58 -72 -76 -110 -30 -63 -31 -71 -27 -159 5
-92 5 -93 -25 -127 -17 -19 -47 -44 -68 -54 -85 -45 -251 -156 -323 -216 -26
-22 -67 -53 -90 -70 -116 -81 -292 -225 -413 -337 l-52 -48 1355 0 1354 0 0
3013 c0 2927 -1 3014 -19 3053 -59 123 -73 156 -68 160 6 6 45 -60 68 -116
l18 -45 0 85 c0 63 -4 96 -19 128 -19 43 -36 58 -25 22 3 -11 4 -20 1 -20 -9
0 -34 101 -29 119 3 10 0 22 -5 25 -6 4 -8 -3 -5 -16 9 -39 -14 -8 -35 47 -11
28 -28 68 -38 90 -10 22 -18 42 -19 45 -1 3 -5 21 -9 40 -5 19 -14 47 -22 61
-19 37 -67 272 -69 339 -1 30 -10 82 -20 115 -17 57 -19 77 -16 135 2 21 5 19
19 -17 10 -23 23 -48 30 -55 7 -7 1 16 -13 50 -26 64 -34 112 -9 55 8 -18 17
-33 20 -33 3 0 2 6 -1 13 -4 6 1 3 9 -8 15 -18 16 -16 10 28 l-7 46 34 -9 c45
-13 74 -48 108 -132 7 -20 18 -28 35 -28 15 0 36 -12 51 -27 l25 -28 0 1553 0
1552 -2127 0 -2128 0 26 -23 c15 -12 35 -35 44 -52 13 -22 5 -17 -34 23 -58
58 -95 73 -40 16 25 -27 28 -34 12 -25 -13 6 -23 15 -23 20 0 14 -65 43 -85
38 -16 -3 -13 -6 13 -12 37 -9 54 -26 20 -19 l-23 5 22 -12 c25 -13 37 -49 21
-64 -8 -7 -9 -6 -4 2 10 18 -26 33 -48 21 -13 -7 -17 -7 -12 0 4 6 -4 16 -16
22 -19 9 -21 9 -7 -2 9 -7 14 -19 12 -25 -3 -7 0 -13 6 -13 6 0 11 -5 11 -11
0 -5 -6 -7 -12 -3 -10 6 -10 4 0 -8 18 -22 -4 -19 -38 5 -15 10 -28 13 -34 7
-6 -6 -16 -5 -28 1 -12 7 -18 6 -18 -1 0 -6 -4 -8 -10 -5 -19 12 -10 -9 18
-38 19 -21 22 -28 10 -24 -11 4 -18 1 -18 -6 -1 -7 -10 -1 -21 12 -22 27 -39
20 -21 -9 19 -31 15 -42 -9 -30 -11 7 -23 9 -26 6 -3 -3 2 -8 11 -12 9 -3 16
-10 16 -15 0 -6 -8 -5 -19 1 -29 15 -35 12 -20 -7 13 -17 12 -17 -6 -3 -11 8
-30 23 -43 35 -13 11 -26 19 -28 17 -2 -1 -20 9 -40 24 -19 15 -37 24 -40 21
-3 -3 -17 1 -32 9 -34 17 -41 9 -14 -18 17 -18 24 -19 36 -9 18 15 39 1 101
-68 27 -30 33 -40 18 -33 -12 7 -25 17 -28 22 -4 6 -11 7 -17 4 -6 -4 -8 -2
-5 3 8 13 -31 65 -45 61 -14 -5 -10 -23 4 -23 7 0 14 -9 17 -20 2 -11 12 -32
23 -47 11 -16 16 -33 12 -39 -5 -9 -11 -6 -21 6 -7 11 -13 15 -13 9 -1 -5 -7
2 -15 16 -8 14 -14 20 -15 13 0 -7 -7 -10 -16 -6 -14 5 -14 2 2 -22 18 -28 18
-28 -3 -14 -12 7 -26 22 -32 34 -5 11 -10 14 -10 7 -1 -7 4 -23 11 -35 13 -23
19 -47 12 -47 -2 0 -10 12 -18 28 -8 15 -15 21 -16 13 0 -8 10 -28 23 -45 37
-49 43 -64 20 -43 -12 10 -28 19 -36 21 -8 1 -21 7 -28 12 -36 28 -41 27 -37
-7 3 -35 -13 -46 -39 -27 -8 6 -11 3 -9 -9 2 -10 9 -18 16 -18 7 0 14 -10 15
-23 2 -22 1 -22 -19 -4 -37 33 -51 38 -33 11 28 -39 19 -45 -16 -11 -32 31
-58 44 -40 20 5 -7 15 -26 21 -43 l12 -30 -22 26 c-51 59 -73 91 -70 102 2 7
0 9 -3 5 -10 -9 -45 9 -45 24 0 7 4 7 14 -1 10 -9 16 -9 21 -1 5 8 11 8 21 -1
23 -19 27 -4 9 28 l-17 28 21 -25 c11 -14 21 -29 21 -34 0 -6 5 -5 11 1 9 9 8
18 -5 37 -9 14 -16 31 -16 38 0 7 9 -2 20 -19 23 -38 35 -43 27 -10 -5 20 -4
19 19 -7 14 -15 27 -26 30 -24 2 3 -5 13 -16 23 -11 10 -20 23 -20 28 0 13
-48 57 -62 57 -6 0 -9 3 -6 6 3 3 26 -5 50 -17 50 -26 78 -33 78 -19 0 6 -9
10 -20 10 -21 0 -60 33 -60 50 0 6 17 -1 37 -15 45 -30 56 -31 48 -5 -4 11 -2
21 4 21 6 1 17 2 24 3 6 1 18 -2 25 -7 6 -5 12 -7 12 -3 0 4 21 -5 47 -19 27
-14 52 -25 57 -25 15 0 -37 51 -62 61 -14 5 -20 14 -16 21 4 6 3 8 -3 5 -6 -4
-30 1 -52 12 l-42 18 63 6 c34 3 64 10 66 16 2 6 7 9 11 7 4 -3 23 -1 43 3 29
7 35 6 31 -5 -3 -8 0 -15 6 -15 21 -3 26 -4 41 -13 8 -5 5 2 -7 16 -13 13 -23
30 -23 37 0 7 -4 9 -10 6 -5 -3 -7 0 -4 8 3 9 17 13 40 11 18 -1 34 2 34 7 0
6 5 7 10 4 14 -9 13 8 -2 23 -14 14 -970 16 -1003 2 -18 -8 -16 -9 10 -11 17
-1 48 -2 70 -2 36 1 38 0 15 -9 -14 -5 -43 -7 -64 -4 -22 2 -49 0 -60 -6 -20
-11 -20 -11 -1 -20 14 -6 10 -7 -15 -3 l-35 5 25 -16 25 -15 -27 5 c-15 4 -39
1 -53 -6 l-26 -12 28 -12 c28 -12 28 -12 -8 -7 -25 4 -45 -1 -70 -16 -19 -11
-29 -21 -24 -22 14 -1 -26 -17 -44 -18 -8 -1 3 15 25 34 21 19 35 35 29 35 -5
1 6 8 25 17 19 9 41 15 48 14 6 -1 12 3 12 9 0 5 -7 10 -16 10 -8 0 -13 4 -10
9 3 5 16 7 29 3 18 -5 20 -3 10 9 -11 13 -6 15 35 13 26 -1 38 0 27 3 -11 3
-24 9 -30 13 -5 4 -53 9 -106 9 -85 1 -101 -1 -132 -21 -20 -13 -34 -29 -32
-35 2 -7 -1 -12 -8 -10 -7 1 -11 -4 -9 -11 1 -8 -2 -11 -7 -8 -5 3 -26 -16
-47 -42 -49 -61 -59 -71 -46 -47 6 11 40 55 76 98 l67 77 -2166 0 -2165 0 0
-5120z m4469 5078 c-3 -2 -40 -37 -84 -78 l-80 -75 75 78 c41 42 79 77 84 77
5 0 7 -1 5 -2z m-299 -177 c0 -5 -7 -12 -16 -15 -14 -5 -15 -4 -4 9 14 17 20
19 20 6z m-160 -61 c-8 -5 -19 -10 -25 -10 -5 0 -3 5 5 10 8 5 20 10 25 10 6
0 3 -5 -5 -10z m-50 -20 c-8 -5 -19 -10 -25 -10 -5 0 -3 5 5 10 8 5 20 10 25
10 6 0 3 -5 -5 -10z m-48 -17 c-6 -2 -10 -9 -7 -14 4 -5 -1 -6 -9 -3 -9 3 -16
2 -16 -4 0 -5 -35 -30 -77 -55 -43 -25 -107 -73 -143 -107 -35 -34 -66 -57
-68 -51 -2 6 11 23 29 38 18 16 58 50 88 76 30 26 65 50 78 53 13 4 23 10 23
15 0 5 9 9 21 9 11 0 17 4 14 10 -4 6 1 7 12 3 10 -3 14 -2 10 2 -8 9 29 35
48 34 6 0 4 -3 -3 -6z m1226 -28 c-3 -3 -9 2 -12 12 -6 14 -5 15 5 6 7 -7 10
-15 7 -18z m42 -64 c0 -5 14 -14 30 -21 17 -7 30 -17 30 -22 0 -6 -8 -4 -17 3
-17 13 -17 12 -2 -6 29 -36 30 -44 8 -38 -19 5 -21 3 -17 -20 3 -15 1 -27 -3
-27 -5 0 -9 5 -9 10 0 6 -5 10 -11 10 -6 0 -8 -10 -5 -22 3 -13 3 -17 0 -10
-3 6 -10 10 -15 7 -4 -3 -20 2 -34 11 -14 9 -25 13 -25 9 0 -4 -7 -1 -17 6
-15 13 -15 12 -2 -8 10 -16 16 -19 22 -10 6 9 7 8 5 -2 -6 -20 -35 -22 -50 -3
-12 15 -11 16 5 3 10 -8 17 -9 17 -3 0 6 -4 13 -10 17 -5 3 -7 12 -4 19 3 8 1
17 -5 21 -6 3 -11 11 -11 17 0 5 9 0 20 -13 29 -36 24 -13 -9 42 l-30 47 34
-21 c19 -12 33 -29 32 -37 -1 -8 4 -14 12 -12 7 1 19 -2 27 -9 11 -9 13 -5 9
21 -4 30 -3 31 14 16 28 -25 37 -19 11 9 -12 13 -27 22 -31 19 -5 -3 -9 2 -9
11 0 13 4 14 20 5 11 -6 20 -14 20 -19z m-1215 9 c-3 -5 -12 -10 -18 -10 -7 0
-6 4 3 10 19 12 23 12 15 0z m-49 -25 c-11 -8 -25 -15 -30 -15 -6 1 0 7 14 15
32 19 40 18 16 0z m-76 -45 c-8 -6 -34 -15 -57 -21 -24 -6 -40 -15 -37 -20 3
-5 -2 -6 -10 -3 -8 3 -27 -3 -42 -12 -15 -10 -33 -19 -40 -20 -22 -3 -73 -47
-67 -57 3 -6 1 -7 -4 -4 -6 4 -18 -2 -28 -13 -10 -11 -15 -20 -11 -20 11 0
166 79 196 100 30 21 139 80 147 80 3 0 -2 -9 -12 -20 -10 -11 -23 -20 -30
-20 -17 0 -47 -35 -38 -44 5 -4 4 -6 -2 -5 -9 2 -115 -59 -115 -67 0 -1 15 2
32 7 50 14 56 11 20 -11 -18 -11 -36 -19 -40 -18 -11 3 -54 -23 -48 -29 3 -4
15 2 26 12 11 10 20 13 20 7 0 -6 -16 -20 -36 -32 -19 -12 -33 -25 -30 -28 3
-3 0 -12 -7 -21 -10 -14 -10 -14 3 -5 22 16 52 25 45 14 -8 -13 1 -13 27 1 15
8 19 8 14 0 -4 -6 -24 -20 -44 -30 -20 -10 -45 -28 -56 -40 -10 -11 -22 -18
-26 -16 -4 2 -15 -4 -25 -15 -10 -11 -24 -20 -32 -20 -15 0 -15 -2 -7 -24 3
-9 10 -13 15 -10 5 3 7 9 4 14 -3 4 1 10 9 13 51 20 -59 -92 -121 -123 -36
-18 -93 -70 -93 -86 0 -6 -18 -26 -41 -45 -44 -37 -144 -155 -174 -206 -10
-18 -22 -30 -27 -27 -4 3 -5 -2 -2 -10 4 -10 1 -16 -7 -16 -12 0 -51 -62 -126
-204 -12 -22 -19 -44 -17 -48 7 -11 -15 -50 -25 -44 -5 3 -4 26 2 50 6 25 14
43 19 40 4 -3 8 1 9 8 1 28 8 46 52 144 49 109 116 234 169 316 18 28 31 53
30 56 -2 2 0 8 5 11 5 3 22 24 38 46 l29 40 -31 -28 c-21 -20 -33 -25 -38 -17
-10 15 -46 -19 -86 -82 -18 -27 -34 -46 -37 -43 -4 3 -14 -9 -25 -27 -10 -18
-15 -24 -12 -13 3 11 29 63 58 115 39 72 72 115 137 180 82 82 163 149 145
120 -17 -28 119 86 158 133 22 26 42 45 45 42 3 -3 19 5 36 18 17 12 42 28 56
35 70 34 200 68 160 42z m1210 -47 c8 -7 12 -13 8 -13 -4 0 2 -21 13 -46 25
-59 20 -66 -10 -14 -12 22 -24 40 -27 40 -8 0 2 -55 14 -77 20 -36 14 -35 -24
5 -20 20 -33 31 -29 25 6 -12 -7 -18 -28 -14 -5 1 -6 -3 -2 -9 3 -6 11 -7 17
-4 6 4 5 -3 -2 -16 -10 -18 -14 -20 -21 -9 -7 11 -9 9 -10 -6 0 -11 -3 -14 -6
-7 -2 6 -9 12 -13 12 -5 0 0 -25 10 -55 11 -31 15 -53 10 -50 -4 3 -11 19 -15
35 -4 18 -11 27 -17 24 -7 -4 -8 -2 -4 5 4 6 2 18 -4 26 -6 8 -9 19 -5 25 4 6
-3 22 -16 36 -23 24 -14 35 10 12 8 -8 7 0 -4 21 -18 35 -3 35 23 -1 7 -10 19
-18 25 -18 8 0 9 2 1 8 -14 9 -37 52 -28 52 4 0 12 -7 18 -16 7 -9 22 -14 34
-12 l23 3 -20 40 c-17 34 -18 37 -3 20 20 -23 62 -49 68 -42 2 2 -5 12 -16 22
-11 10 -20 27 -20 39 0 19 1 19 17 -4 9 -14 24 -30 33 -37z m-1513 -39 c-3 -3
-12 -4 -19 -1 -8 3 -5 6 6 6 11 1 17 -2 13 -5z m1328 -44 c4 -17 10 -28 15
-25 5 3 12 0 16 -6 4 -8 3 -9 -4 -5 -16 9 -15 -7 0 -22 7 -7 14 -31 15 -55 2
-30 0 -38 -7 -27 -9 13 -10 13 -10 0 -1 -8 -8 0 -16 19 -8 19 -12 41 -9 49 3
7 0 23 -6 34 -14 26 -21 80 -9 73 5 -3 11 -19 15 -35z m-1428 6 c-22 -13 -55
-39 -75 -57 -31 -28 -33 -29 -12 -5 30 34 99 86 114 86 6 0 -6 -11 -27 -24z
m1399 -92 c-3 -7 1 -17 8 -23 7 -6 10 -25 8 -47 -3 -25 -7 -32 -13 -23 -7 11
-9 10 -9 -3 0 -10 -4 -18 -10 -18 -5 0 -10 11 -10 25 0 14 -7 41 -14 60 -16
39 -6 48 13 13 11 -22 11 -22 6 4 -3 14 -8 34 -12 45 -6 17 -5 17 16 -1 12
-11 20 -25 17 -32z m-85 -62 c34 -79 34 -81 6 -47 -14 17 -28 44 -32 62 -3 18
-10 35 -16 39 -14 8 -2 -53 22 -120 16 -43 27 -136 12 -97 -5 11 -7 11 -15 0
-8 -11 -9 -10 -4 4 3 9 -3 45 -14 80 -43 137 -11 200 41 79z m-991 54 c0 -2
-7 -7 -16 -10 -8 -3 -12 -2 -9 4 6 10 25 14 25 6z m1039 -113 c1 -12 -4 -25
-11 -29 -8 -5 -9 -2 -5 10 4 9 0 33 -8 53 -8 19 -15 43 -14 52 1 22 37 -59 38
-86z m-104 -54 c8 -23 15 -53 14 -68 -1 -22 -3 -19 -14 14 -7 23 -25 65 -40
95 l-27 55 27 -28 c14 -15 32 -46 40 -68z m74 6 c0 -14 -4 -10 -14 14 -8 18
-15 38 -15 45 1 19 29 -38 29 -59z m-126 -60 c39 -122 41 -136 18 -95 -21 36
-44 109 -56 170 -9 54 9 17 38 -75z m-133 69 c0 -8 11 -46 24 -84 14 -39 20
-67 14 -64 -8 5 -9 1 -5 -10 4 -10 9 -30 12 -44 6 -29 -4 -11 -47 84 -19 43
-26 150 -8 139 6 -3 10 -13 10 -21z m105 -101 c10 -43 20 -84 23 -93 3 -10 2
-12 -6 -5 -10 9 -42 137 -42 166 0 27 10 0 25 -68z m-144 14 c-8 -8 -11 -4
-11 14 0 33 14 47 18 19 2 -12 -1 -27 -7 -33z m-866 3 c3 -5 -15 -24 -40 -42
-25 -18 -42 -34 -36 -36 11 -4 -61 -72 -75 -72 -5 0 0 7 10 15 11 8 17 17 15
19 -3 3 -29 -17 -59 -43 -30 -27 -58 -47 -61 -45 -3 2 -6 -3 -6 -11 0 -8 16 0
42 21 23 19 45 34 49 34 4 0 -19 -22 -51 -49 -32 -26 -76 -71 -98 -99 -22 -28
-44 -51 -48 -52 -5 0 -6 4 -3 8 3 5 -1 9 -9 9 -8 0 -12 -4 -9 -9 3 -4 1 -8 -4
-8 -10 0 -70 -81 -68 -92 0 -3 -9 -17 -20 -30 -32 -35 -73 -111 -115 -212 -21
-50 -39 -86 -39 -79 0 6 5 24 10 39 8 19 8 30 0 38 -10 10 -15 -3 -10 -34 1
-11 -1 -12 -10 -3 -9 8 -4 25 23 70 27 47 32 64 25 78 -7 12 -7 16 -1 12 14
-9 35 18 66 79 49 97 224 307 290 348 18 11 27 21 20 23 -10 4 -10 7 0 16 18
18 65 47 74 47 4 0 -1 -6 -11 -12 -18 -10 -18 -11 5 -24 33 -18 47 -17 23 1
-13 11 -14 14 -4 13 9 -2 14 3 12 12 -2 8 -1 12 3 8 4 -4 29 7 56 24 48 29 64
46 33 34 -8 -3 -12 -2 -9 4 8 13 22 13 30 0z m-45 -15 c0 -2 -10 -9 -22 -15
-22 -11 -22 -10 -4 4 21 17 26 19 26 11z m940 -85 c2 18 19 -17 19 -40 0 -9
-4 -8 -9 5 -21 49 -9 -18 15 -81 14 -37 23 -69 21 -71 -8 -9 -68 175 -71 222
l-4 50 13 -50 c8 -27 15 -43 16 -35z m-1010 60 c0 -5 -5 -10 -11 -10 -5 0 -7
5 -4 10 3 6 8 10 11 10 2 0 4 -4 4 -10z m1020 -28 c0 -15 -2 -15 -10 -2 -13
20 -13 33 0 25 6 -3 10 -14 10 -23z m-35 -82 c9 -36 18 -96 20 -135 1 -38 1
-61 -2 -50 -3 11 -9 25 -15 32 -5 6 -14 58 -19 114 -5 56 -12 107 -16 113 -4
7 -3 8 5 1 5 -5 18 -39 27 -75z m-88 8 c-3 -7 -5 -2 -5 12 0 14 2 19 5 13 2
-7 2 -19 0 -25z m37 -208 c11 -56 -10 -13 -28 56 -9 34 -16 79 -15 100 0 38
12 -3 43 -156z m-110 100 c4 -44 3 -60 -4 -50 -9 14 -15 129 -6 119 2 -2 6
-33 10 -69z m-804 -20 c-36 -33 -60 -59 -54 -60 6 0 17 7 24 15 7 8 18 15 24
15 6 0 2 -7 -8 -15 -11 -8 -16 -15 -11 -15 5 0 -6 -15 -24 -32 -19 -18 -41
-43 -49 -56 -9 -14 -21 -21 -31 -17 -9 4 -22 -3 -34 -17 -35 -45 -94 -124
-132 -178 -34 -49 -37 -49 -17 -1 4 10 1 12 -7 6 -11 -6 -11 -3 -1 16 22 40
71 99 80 94 12 -7 33 22 25 35 -4 6 -14 9 -24 6 -9 -4 -2 7 16 23 17 16 30 31
27 33 -2 2 20 26 49 54 29 28 37 33 17 12 -18 -21 -29 -38 -23 -38 6 0 -7 -18
-29 -40 -26 -25 -35 -40 -26 -40 9 0 35 25 59 56 39 51 197 204 209 204 3 -1
-24 -27 -60 -60z m100 56 c0 -3 -4 -8 -10 -11 -5 -3 -10 -1 -10 4 0 6 5 11 10
11 6 0 10 -2 10 -4z m840 -95 c0 -3 -4 -1 -9 5 -6 5 -13 29 -16 54 l-5 45 14
-50 c8 -27 15 -52 16 -54z m-1088 11 c-71 -71 -179 -212 -241 -314 -12 -21
-25 -38 -28 -38 -6 0 26 53 96 159 50 75 226 271 244 271 4 0 -28 -35 -71 -78z
m1037 -102 c9 -17 10 -21 1 -14 -17 17 -60 140 -59 172 0 15 10 -8 23 -53 12
-44 28 -91 35 -105z m118 78 c-3 -8 -6 -5 -6 6 -1 11 2 17 5 13 3 -3 4 -12 1
-19z m-161 -116 c-5 -5 -36 89 -35 107 0 9 9 -11 19 -44 11 -32 18 -61 16 -63z
m-99 76 c-3 -8 -6 -5 -6 6 -1 11 2 17 5 13 3 -3 4 -12 1 -19z m67 -38 c5 -17
4 -20 -2 -10 -5 8 -13 26 -16 40 -5 17 -4 20 2 10 5 -8 13 -26 16 -40z m-1101
7 c-11 -12 -37 -47 -57 -77 -20 -30 -36 -51 -36 -47 0 25 97 163 108 152 3 -3
-4 -15 -15 -28z m148 -74 c-6 -10 -20 -29 -31 -43 l-21 -25 12 25 c11 25 39
60 46 60 2 0 -1 -8 -6 -17z m977 -48 c-3 -3 -9 2 -12 12 -6 14 -5 15 5 6 7 -7
10 -15 7 -18z m-24 -100 c-3 -5 2 -1 11 10 l17 20 -2 -20 c-1 -11 -1 -23 0
-27 6 -18 4 -66 -2 -62 -4 2 -9 0 -13 -6 -3 -5 0 -10 9 -10 14 0 14 -4 3 -70
-2 -9 -6 -21 -10 -28 -6 -8 -3 -10 10 -6 17 5 17 5 -1 -10 -10 -8 -15 -19 -11
-25 3 -6 2 -11 -4 -11 -6 0 -9 -17 -6 -39 2 -29 0 -39 -9 -35 -16 6 -18 -55
-2 -75 9 -12 8 -12 -11 -2 -19 10 -23 9 -23 -4 0 -8 0 -18 -1 -22 0 -4 5 -9
13 -11 10 -3 10 -2 -1 6 -8 6 -9 12 -3 16 5 3 13 -1 16 -9 4 -10 -2 -19 -17
-25 -12 -5 -16 -9 -9 -9 8 -1 10 -6 6 -13 -6 -9 -3 -9 9 0 17 14 17 13 5 -38
-1 -8 3 -14 10 -12 8 1 11 -2 7 -8 -3 -6 -10 -8 -15 -5 -5 3 -11 1 -15 -5 -4
-6 -11 -7 -17 -4 -7 4 -8 2 -4 -4 4 -7 4 -18 -1 -24 -13 -22 -12 -36 4 -42 8
-3 11 -1 8 4 -4 6 1 7 11 3 16 -6 16 -7 0 -18 -22 -16 -20 -28 3 -22 14 3 18
1 14 -9 -3 -8 -9 -12 -13 -9 -4 3 -11 -2 -14 -11 -9 -23 -7 -36 4 -29 5 3 12
-6 16 -20 7 -28 -12 -59 -29 -48 -6 3 -7 1 -3 -6 6 -9 14 -8 32 4 13 8 24 13
24 9 0 -4 7 0 17 7 15 13 15 12 2 -8 -8 -13 -23 -23 -34 -23 -18 -1 -18 -2 -3
-11 10 -5 15 -16 12 -24 -4 -10 0 -15 12 -15 16 0 16 -2 4 -10 -8 -5 -12 -12
-8 -15 3 -3 14 2 24 12 17 17 17 17 11 1 -6 -17 7 -24 35 -19 4 0 5 -6 2 -14
-4 -8 1 -17 10 -21 9 -3 13 -11 9 -17 -3 -6 -1 -7 5 -3 6 4 9 13 6 20 -3 8 -1
17 4 20 5 3 10 -6 10 -19 0 -14 -5 -28 -9 -31 -5 -3 -6 -10 -3 -16 5 -7 2 -9
-7 -6 -9 3 -26 -2 -39 -12 -13 -10 -30 -16 -37 -13 -7 3 -13 0 -13 -6 0 -6 -9
-11 -21 -11 -13 0 -18 -4 -13 -12 4 -7 4 -10 0 -6 -5 4 -19 2 -33 -3 -18 -7
-30 -6 -40 2 -8 7 -13 8 -12 3 1 -5 1 -16 0 -24 -1 -12 -4 -11 -12 3 -8 14
-14 16 -25 6 -11 -9 -14 -9 -11 2 2 8 -1 4 -7 -8 -10 -23 -38 -41 -33 -21 1 6
-4 13 -12 15 -9 4 -11 0 -6 -16 7 -23 -4 -28 -22 -10 -8 8 -13 8 -18 0 -3 -6
-3 -10 2 -9 4 2 8 -1 8 -7 0 -6 -6 -9 -12 -9 -7 1 -11 -2 -8 -6 3 -4 -2 -13
-10 -20 -8 -7 -12 -16 -9 -22 3 -5 -3 -17 -13 -26 -10 -9 -18 -24 -18 -32 1
-8 -3 -21 -8 -27 -5 -7 -7 -22 -4 -34 3 -13 0 -22 -10 -26 -12 -5 -12 -7 -1
-14 7 -5 8 -9 3 -9 -17 0 -16 -43 2 -62 9 -10 13 -26 10 -38 -3 -11 3 -37 13
-58 10 -20 26 -71 35 -112 10 -41 26 -106 37 -145 40 -149 43 -296 9 -435 -29
-121 -148 -481 -164 -497 -4 -3 -7 -20 -8 -37 0 -17 -10 -50 -22 -72 -12 -23
-30 -59 -41 -80 -21 -44 -53 -107 -90 -176 -14 -25 -28 -64 -31 -85 -9 -55 35
-135 103 -190 29 -24 51 -43 48 -43 -2 0 -28 12 -57 26 -50 26 -129 95 -129
114 0 5 -6 15 -13 22 -7 7 -18 37 -25 66 -28 124 -17 159 160 517 39 77 79
165 90 195 11 30 26 62 33 70 31 37 76 126 97 192 34 109 32 301 -6 453 -37
151 -68 246 -96 295 -76 130 -80 139 -86 212 -7 77 7 188 51 428 47 255 69
339 112 430 34 72 104 180 115 180 5 0 7 4 4 9 -7 11 58 78 84 86 11 4 18 11
14 16 -3 5 -2 8 3 7 12 -3 57 23 67 40 7 12 10 12 17 1 4 -7 5 -18 3 -24z
m-1144 -79 c0 -2 -8 -10 -17 -17 -16 -13 -17 -12 -4 4 13 16 21 21 21 13z
m-277 -121 c-3 -9 -8 -14 -10 -11 -3 3 -2 9 2 15 9 16 15 13 8 -4z m1407 -349
c0 -2 -12 -11 -27 -20 l-28 -17 24 20 c23 21 31 25 31 17z m-123 -502 c-3 -3
-12 -4 -19 -1 -8 3 -5 6 6 6 11 1 17 -2 13 -5z m-112 -82 c-3 -3 -11 0 -18 7
-9 10 -8 11 6 5 10 -3 15 -9 12 -12z m420 -261 c-10 -9 -29 -8 -38 4 -5 6 -7
4 -4 -5 2 -8 9 -16 15 -16 7 -1 16 -2 21 -3 13 -2 1 -41 -13 -41 -7 0 -6 -4 2
-9 8 -4 13 -11 13 -15 -1 -11 -54 -62 -84 -81 -24 -16 -27 -16 -21 -1 5 12 2
15 -10 10 -14 -5 -16 -1 -13 22 2 16 0 35 -6 42 -8 10 -7 12 4 10 8 -2 13 3
12 10 -2 6 2 12 7 12 6 0 10 8 8 18 -2 11 3 17 15 16 14 -2 15 1 6 12 -9 11
-7 14 9 14 12 0 23 4 26 9 3 4 17 6 31 3 14 -2 23 -7 20 -11z m-529 -222 c13
-26 12 -31 -11 -65 l-25 -37 0 39 c0 21 -3 57 -7 79 -6 37 -5 39 11 26 10 -8
24 -27 32 -42z m-26 -200 c0 -5 -4 -9 -10 -9 -5 0 -10 7 -10 16 0 8 5 12 10 9
6 -3 10 -10 10 -16z m740 -164 c0 -7 -64 -39 -72 -37 -5 1 -8 -2 -8 -8 0 -5
-5 -10 -11 -10 -7 0 -17 -6 -23 -14 -14 -19 -76 -29 -77 -13 0 8 -2 8 -6 -1
-2 -6 -9 -10 -14 -6 -17 10 2 24 32 24 16 0 29 5 29 10 0 6 10 10 23 11 12 0
45 11 72 24 59 28 55 26 55 20z m-285 -131 c-2 -25 -7 -49 -11 -52 -4 -4 -4 4
-1 17 3 13 1 33 -4 43 -10 19 -5 38 10 38 5 0 7 -21 6 -46z m46 16 c6 0 7 5 4
10 -3 6 -2 10 4 10 16 0 22 -18 9 -26 -7 -5 -4 -10 11 -16 16 -6 21 -13 17
-25 -4 -10 -4 -14 0 -11 3 4 18 1 33 -6 14 -7 34 -12 44 -11 9 2 14 -1 11 -7
-4 -6 2 -8 12 -6 11 2 25 -3 32 -12 8 -8 11 -9 7 -2 -3 6 -1 12 4 12 6 0 11
-6 12 -12 0 -10 2 -10 6 0 7 19 23 14 16 -5 -6 -16 -5 -16 10 -4 14 11 17 11
18 0 0 -10 2 -10 6 -2 3 9 11 8 31 -5 14 -9 27 -16 29 -14 11 9 20 -1 19 -20
-1 -14 5 -23 14 -23 8 0 19 -9 23 -20 10 -25 10 -30 -2 -30 -5 0 -13 -3 -17
-7 -4 -5 -1 -8 7 -8 11 0 11 -2 -1 -10 -8 -5 -10 -10 -4 -10 6 0 11 -6 11 -14
0 -8 -3 -15 -6 -14 -18 2 -21 -4 -10 -24 6 -13 8 -20 4 -16 -5 4 -14 3 -22 -3
-10 -9 -10 -15 -2 -25 9 -11 8 -14 0 -14 -8 0 -10 -8 -6 -21 6 -16 4 -20 -6
-13 -12 6 -12 5 -1 -8 11 -14 10 -18 -5 -30 -10 -7 -20 -22 -21 -33 -2 -11 -8
-22 -14 -24 -6 -2 -4 -7 3 -12 11 -7 11 -9 1 -9 -7 0 -11 -4 -8 -9 3 -5 -1
-14 -9 -21 -7 -6 -11 -18 -8 -26 3 -8 -1 -14 -8 -14 -11 0 -11 -3 1 -10 11 -7
11 -10 2 -10 -8 0 -12 -9 -10 -22 2 -11 -3 -23 -11 -26 -9 -3 -11 0 -6 8 5 8
4 11 -3 6 -15 -9 -3 -38 12 -29 6 3 2 -4 -9 -17 -11 -13 -14 -20 -8 -16 9 5
11 2 7 -8 -3 -9 -14 -16 -23 -17 -13 0 -12 -2 3 -8 19 -7 19 -8 1 -15 -15 -5
-16 -9 -6 -15 9 -6 10 -11 3 -15 -6 -4 -9 -13 -5 -22 3 -9 0 -14 -8 -12 -8 2
-13 -2 -12 -9 2 -9 -5 -9 -28 -1 -20 7 -28 15 -25 24 3 8 -3 23 -14 34 -11 11
-21 23 -21 28 -3 15 -11 38 -24 69 -8 18 -12 39 -9 48 4 8 2 15 -3 15 -9 0
-11 7 -14 48 -1 9 -6 23 -12 30 -5 6 -6 12 -2 12 4 0 2 6 -4 14 -8 10 -9 16
-1 21 6 4 2 14 -12 26 -20 16 -21 20 -8 29 8 5 10 10 3 10 -6 0 -9 8 -6 18 2
10 -2 24 -10 31 -9 7 -13 21 -9 33 3 13 1 19 -5 15 -12 -7 -10 29 2 40 4 5 5
3 1 -4 -3 -6 -3 -14 2 -17 4 -2 8 6 8 19 0 14 -5 21 -12 18 -8 -3 -11 3 -10
14 2 10 -1 26 -6 36 -6 13 -5 23 4 35 9 11 10 14 1 8 -9 -5 -13 0 -14 13 -1
12 -2 27 -3 34 -1 6 3 18 8 26 9 12 8 13 -4 7 -8 -4 -7 -1 3 7 10 9 18 18 18
21 -5 40 0 55 17 49 14 -5 15 -3 5 8 -7 7 -13 18 -12 24 0 5 3 4 6 -2 2 -7 9
-13 14 -13z m5623 -86 c3 -8 2 -12 -4 -9 -6 3 -10 10 -10 16 0 14 7 11 14 -7z
m49 -99 c8 -22 25 -66 36 -99 12 -32 20 -60 18 -63 -3 -2 -15 26 -28 62 -12
36 -27 65 -33 65 -5 0 -7 3 -3 6 3 4 0 22 -8 41 -17 41 -19 51 -6 38 5 -6 16
-28 24 -50z m-5303 41 c0 -2 -8 -10 -17 -17 -16 -13 -17 -12 -4 4 13 16 21 21
21 13z m5340 -211 c0 -5 -5 -3 -10 5 -5 8 -10 20 -10 25 0 6 5 3 10 -5 5 -8
10 -19 10 -25z m-9247 -20 c38 -3 58 -13 91 -42 28 -25 68 -46 112 -60 176
-55 189 -56 217 -22 9 12 17 32 17 45 0 13 4 24 10 24 5 0 18 10 29 21 16 18
26 20 56 15 20 -4 47 -12 58 -17 25 -11 67 -78 67 -107 0 -10 18 -49 41 -86
22 -37 43 -84 46 -104 3 -20 12 -52 20 -71 13 -28 14 -56 9 -145 -7 -111 -22
-196 -35 -196 -13 0 -41 -70 -41 -101 0 -20 -16 -50 -50 -95 -27 -36 -50 -70
-50 -75 0 -23 -31 -40 -67 -37 -29 2 -40 9 -55 36 -10 18 -19 36 -20 40 -1 4
-9 16 -18 26 -39 49 -51 56 -92 56 -29 0 -49 7 -64 21 -23 21 -24 21 -61 4
-20 -10 -60 -39 -88 -65 -74 -70 -97 -78 -219 -83 -115 -3 -144 4 -191 47 -15
14 -33 26 -40 26 -29 0 -115 117 -115 156 0 20 -60 154 -69 154 -3 0 -6 58 -6
129 0 71 3 127 8 124 4 -2 7 0 7 6 0 31 122 251 139 251 5 0 14 14 21 30 10
23 17 29 31 25 11 -4 19 -3 19 2 0 15 49 65 58 59 5 -3 15 1 22 9 12 14 66 14
203 0z m2017 -130 c0 -7 -241 -198 -245 -193 -4 4 120 110 189 160 54 40 56
41 56 33z m1667 -341 c-3 -3 -12 -4 -19 -1 -8 3 -5 6 6 6 11 1 17 -2 13 -5z
m28 -24 c3 -5 -1 -10 -10 -10 -9 0 -13 5 -10 10 3 6 8 10 10 10 2 0 7 -4 10
-10z m-614 -418 c72 -35 147 -116 170 -185 12 -36 25 -56 43 -65 14 -7 26 -20
26 -28 0 -7 5 -14 11 -14 14 0 5 -65 -10 -84 -8 -9 -33 -12 -80 -9 -63 3 -72
1 -100 -23 -24 -20 -31 -34 -31 -60 0 -37 34 -114 50 -114 6 0 10 -5 10 -11 0
-19 -42 19 -65 59 -37 65 -58 140 -52 184 3 23 24 76 46 119 34 65 41 87 41
137 l0 59 -56 19 c-30 10 -60 24 -66 31 -15 19 0 15 63 -15z m229 -673 c0 -15
42 -48 62 -49 30 0 30 -20 -1 -49 -36 -33 -39 -69 -17 -163 13 -55 13 -58 -6
-64 -29 -9 -45 12 -73 92 -30 83 -31 145 -5 202 18 39 40 56 40 31z m330 -549
c35 -49 49 -97 43 -150 -9 -80 -9 -144 0 -175 4 -16 9 -39 11 -50 3 -25 22
-61 53 -102 13 -18 19 -33 13 -33 -23 0 -56 24 -103 74 -97 102 -129 185 -153
389 -9 86 -23 159 -35 186 -10 24 -19 46 -19 49 0 10 164 -153 190 -188z
m-699 -41 c19 -9 19 -12 6 -27 -18 -20 -12 -72 8 -72 17 0 29 -42 31 -110 3
-87 3 -90 17 -85 8 4 11 24 10 62 -4 81 27 111 41 41 3 -18 23 -49 43 -70 22
-23 33 -42 30 -52 -4 -9 -2 -16 3 -16 14 0 2 -179 -16 -240 -25 -86 -28 -118
-11 -122 12 -2 9 -17 -15 -78 -17 -41 -33 -77 -37 -80 -14 -12 -31 -52 -26
-61 16 -25 -100 -247 -156 -302 -11 -10 -37 -41 -59 -70 -70 -92 -270 -276
-415 -380 -209 -151 -293 -208 -330 -221 -22 -7 -49 -17 -60 -22 -18 -7 -18
-5 3 18 12 14 35 31 50 39 34 17 62 40 62 51 0 5 -9 4 -20 -2 -11 -6 -26 -8
-32 -4 -6 4 -8 3 -4 -4 4 -7 -4 -10 -23 -10 -32 1 -62 -17 -58 -34 4 -19 -100
-55 -218 -74 -134 -22 -114 15 25 46 30 7 60 16 65 20 6 4 27 13 47 19 21 7
40 16 43 21 6 9 -6 7 -110 -20 -38 -10 -97 -20 -129 -23 -51 -3 -57 -2 -41 10
11 7 22 13 26 13 4 0 10 11 13 24 5 19 16 26 58 37 60 14 138 45 138 55 0 4
-21 4 -46 1 -26 -2 -42 -2 -37 2 5 3 12 13 15 21 4 12 -3 15 -36 14 -22 0 -54
2 -71 6 l-30 6 25 14 c14 8 45 24 70 35 79 35 164 84 200 115 31 27 137 95
195 126 11 6 19 15 18 21 -1 6 11 16 27 23 15 6 45 29 65 51 20 21 40 39 44
39 5 0 11 6 14 14 3 8 -11 3 -34 -12 -21 -14 -39 -29 -39 -34 0 -4 -4 -8 -10
-8 -5 0 -26 -11 -46 -25 -21 -14 -44 -23 -51 -21 -7 3 -13 1 -13 -3 0 -5 -9
-7 -21 -4 -17 5 3 28 128 149 81 79 152 143 156 144 5 0 5 5 2 10 -3 6 3 22
14 36 25 32 26 44 6 44 -22 0 -19 5 22 47 43 45 148 184 170 227 8 16 19 44
24 60 l8 31 -22 -26 c-12 -14 -35 -42 -52 -63 -36 -44 -174 -170 -180 -164 -2
2 7 16 20 31 14 14 25 33 25 40 0 8 7 21 16 28 24 20 102 123 115 153 7 14 18
26 24 26 11 0 75 93 75 109 0 4 18 25 41 46 71 69 129 159 129 199 0 37 -13
48 -24 21 -3 -8 -12 -15 -21 -15 -8 0 -15 -9 -15 -20 0 -11 -4 -20 -10 -20 -5
0 -10 5 -10 10 0 13 29 61 45 75 12 11 48 85 59 123 4 12 12 22 17 22 5 0 9 7
9 15 0 18 5 18 31 4z m-711 -1052 c-49 -47 -83 -66 -73 -41 3 7 8 14 12 14 4
0 16 8 27 18 23 22 66 52 74 52 3 0 -15 -19 -40 -43z m-35 -317 c-3 -5 -11
-10 -16 -10 -6 0 -7 5 -4 10 3 6 11 10 16 10 6 0 7 -4 4 -10z m815 -33 c0 -14
-114 -116 -122 -110 -8 4 -9 0 -5 -11 4 -9 3 -15 -2 -11 -5 3 -21 -9 -35 -25
-36 -44 -86 -84 -86 -70 0 6 30 39 67 73 37 34 89 83 117 110 43 41 66 56 66
44z m452 -684 c-5 -30 -44 -88 -77 -114 -11 -9 -43 -38 -71 -65 -68 -65 -108
-88 -123 -71 -8 10 -6 19 9 35 11 12 20 25 20 31 0 5 4 11 9 13 5 2 47 39 93
84 46 44 91 83 101 87 9 3 17 11 17 17 0 5 6 10 14 10 9 0 12 -9 8 -27z m3599
-769 c12 -14 11 -16 -5 -13 -11 2 -21 10 -24 17 -5 17 13 15 29 -4z m-1128
-26 c-21 -21 -68 -34 -57 -16 4 5 13 7 21 4 9 -4 17 1 20 14 3 11 13 20 21 20
13 0 12 -4 -5 -22z m-3969 -871 c41 -30 -29 -125 -120 -163 -36 -15 -56 -18
-38 -6 9 6 44 99 44 117 0 4 -12 4 -27 1 -21 -5 -24 -4 -13 4 13 9 13 11 0 21
-12 9 -12 10 4 5 10 -4 25 -1 32 5 13 10 60 25 90 28 5 1 18 -5 28 -12z"/>
<path d="M3739 9683 c-13 -15 -12 -15 9 -4 23 12 28 21 13 21 -5 0 -15 -7 -22
-17z"/>
<path d="M3595 9602 c-38 -19 -125 -87 -190 -148 -39 -37 -43 -41 -15 -23 19
13 37 26 40 29 3 4 28 21 55 40 42 29 115 83 150 112 15 13 -7 8 -40 -10z"/>
<path d="M3544 9488 l-29 -33 35 30 c19 17 37 31 39 33 2 1 0 2 -5 2 -6 0 -23
-15 -40 -32z"/>
<path d="M3636 9495 c-11 -8 -16 -15 -10 -15 5 0 18 7 28 15 11 8 16 15 10 15
-5 0 -18 -7 -28 -15z"/>
<path d="M3549 9463 c-13 -16 -12 -17 4 -4 16 13 21 21 13 21 -2 0 -10 -8 -17
-17z"/>
<path d="M3335 9444 c-53 -36 -108 -88 -154 -149 -64 -84 -78 -114 -25 -55 73
81 126 135 133 135 3 0 5 4 3 8 -1 5 2 6 7 3 5 -3 25 14 46 39 20 25 35 45 33
45 -2 0 -21 -12 -43 -26z"/>
<path d="M3510 9350 c-8 -5 -12 -12 -9 -15 4 -3 12 1 19 10 14 17 11 19 -10 5z"/>
<path d="M3461 9314 l-24 -25 26 12 c15 7 27 18 27 26 0 17 -1 17 -29 -13z"/>
<path d="M3225 9296 c-21 -22 -25 -35 -15 -41 5 -3 15 6 20 21 12 30 10 37 -5
20z"/>
<path d="M3090 9159 c-7 -11 -10 -23 -7 -25 2 -2 9 7 15 21 14 30 7 33 -8 4z"/>
<path d="M4520 9295 c0 -5 5 -17 10 -25 5 -8 10 -10 10 -5 0 6 -5 17 -10 25
-5 8 -10 11 -10 5z"/>
<path d="M3410 9205 c-10 -12 -10 -15 0 -15 10 0 9 -4 -1 -17 -13 -17 -13 -17
7 0 11 9 21 24 21 32 0 19 -11 19 -27 0z"/>
<path d="M3320 9057 c-8 -7 -26 -26 -40 -42 -17 -20 -11 -17 18 10 38 35 47
46 40 45 -2 0 -10 -6 -18 -13z"/>
<path d="M3002 8630 c0 -14 2 -19 5 -12 2 6 2 18 0 25 -3 6 -5 1 -5 -13z"/>
<path d="M3435 8969 c-9 -14 -2 -20 14 -10 8 6 9 11 3 15 -6 3 -14 1 -17 -5z"/>
<path d="M3394 8922 c4 -7 2 -21 -5 -30 -12 -15 -11 -15 6 0 16 15 17 20 6 30
-11 11 -13 10 -7 0z"/>
<path d="M3329 8903 c-13 -16 -12 -17 4 -4 9 7 17 15 17 17 0 8 -8 3 -21 -13z"/>
<path d="M3232 8748 c-28 -37 -39 -58 -29 -58 7 0 69 91 65 95 -2 3 -19 -14
-36 -37z"/>
<path d="M4290 7879 c0 -5 5 -7 10 -4 6 3 10 8 10 11 0 2 -4 4 -10 4 -5 0 -10
-5 -10 -11z"/>
<path d="M4335 7820 c-3 -5 -5 -10 -3 -11 27 -6 39 -5 45 4 3 7 3 9 -2 5 -4
-4 -14 -3 -21 3 -8 7 -14 7 -19 -1z"/>
<path d="M4316 7785 c-3 -8 -1 -15 4 -15 6 0 10 7 10 15 0 8 -2 15 -4 15 -2 0
-6 -7 -10 -15z"/>
<path d="M4341 7767 c-13 -21 -12 -21 5 -5 10 10 16 20 13 22 -3 3 -11 -5 -18
-17z"/>
<path d="M4375 7780 c-3 -5 -1 -10 4 -10 6 0 11 5 11 10 0 6 -2 10 -4 10 -3 0
-8 -4 -11 -10z"/>
<path d="M4745 6460 c-3 -5 -1 -10 4 -10 6 0 11 5 11 10 0 6 -2 10 -4 10 -3 0
-8 -4 -11 -10z"/>
<path d="M4790 6396 c0 -2 7 -7 16 -10 8 -3 12 -2 9 4 -6 10 -25 14 -25 6z"/>
<path d="M3465 3172 c-11 -10 -29 -35 -40 -57 -11 -22 -22 -42 -25 -45 -3 -3
-14 -16 -25 -30 -18 -22 -17 -22 20 5 22 16 53 45 70 64 16 19 36 40 43 47 19
19 14 26 -10 13 -18 -10 -20 -9 -15 5 8 20 7 20 -18 -2z"/>
<path d="M3410 2965 c-13 -14 -29 -25 -36 -25 -16 0 -134 -99 -134 -113 0 -6
11 0 25 13 14 13 25 18 25 12 0 -31 53 8 120 88 43 51 43 70 0 25z"/>
<path d="M5668 10227 c14 -17 102 -61 108 -54 3 2 -10 12 -28 20 -18 9 -31 17
-28 18 25 6 90 7 86 1 -2 -4 7 -7 20 -7 21 0 22 2 8 15 -10 10 -41 16 -96 19
-73 3 -81 2 -70 -12z"/>
<path d="M5650 10176 c0 -2 8 -10 18 -17 15 -13 16 -12 3 4 -13 16 -21 21 -21
13z"/>
<path d="M5610 10145 c13 -14 26 -25 28 -25 3 0 -5 11 -18 25 -13 14 -26 25
-28 25 -3 0 5 -11 18 -25z"/>
<path d="M5540 10116 c0 -2 7 -7 16 -10 8 -3 12 -2 9 4 -6 10 -25 14 -25 6z"/>
<path d="M5640 10096 c0 -2 8 -10 18 -17 15 -13 16 -12 3 4 -13 16 -21 21 -21
13z"/>
<path d="M5366 10011 c-3 -4 3 -16 14 -26 11 -10 20 -13 20 -7 0 6 -5 14 -10
17 -6 4 -8 11 -5 16 4 5 2 9 -4 9 -5 0 -12 -4 -15 -9z"/>
<path d="M5410 9986 c0 -2 8 -10 18 -17 15 -13 16 -12 3 4 -13 16 -21 21 -21
13z"/>
<path d="M5225 9860 c10 -11 20 -20 23 -20 3 0 -3 9 -13 20 -10 11 -20 20 -23
20 -3 0 3 -9 13 -20z"/>
<path d="M10188 6434 c-4 -3 0 -21 8 -39 17 -41 17 -48 3 -39 -12 7 0 -18 24
-50 14 -19 15 -18 15 9 0 16 -7 39 -15 51 -7 12 -16 32 -18 44 -5 26 -9 32
-17 24z m40 -109 c-3 -3 -9 2 -12 12 -6 14 -5 15 5 6 7 -7 10 -15 7 -18z"/>
<path d="M7195 831 c-27 -3 -56 -10 -64 -15 -8 -5 -28 -10 -45 -11 -47 -4 -48
-4 -40 -17 4 -7 3 -8 -4 -4 -6 4 -22 0 -36 -9 -13 -9 -28 -14 -33 -13 -5 2
-23 -12 -41 -30 -18 -18 -37 -30 -42 -27 -6 3 -10 2 -10 -3 0 -5 -10 -12 -22
-15 -19 -5 -20 -8 -7 -23 9 -12 10 -15 2 -10 -8 4 -13 2 -13 -6 0 -10 -2 -10
-8 0 -12 17 -47 -22 -38 -43 4 -12 2 -13 -12 -6 -16 9 -18 6 -14 -20 3 -17 0
-29 -7 -29 -6 0 -11 -16 -11 -37 0 -35 1 -36 15 -17 14 18 14 18 15 -8 0 -15
5 -30 10 -33 6 -3 10 1 10 9 0 9 4 16 9 16 5 0 7 -9 4 -20 -4 -14 0 -20 11
-20 11 0 14 -5 10 -12 -4 -6 3 -4 15 4 23 16 65 13 55 -4 -4 -6 1 -8 12 -4 11
3 31 7 46 10 14 2 35 9 46 15 12 6 34 11 51 11 20 0 40 10 60 31 18 17 36 27
42 23 7 -4 9 -3 5 4 -3 5 13 25 35 43 60 47 109 100 109 116 0 8 4 12 9 9 5
-3 11 9 15 27 16 88 16 92 -3 104 -26 16 -78 22 -136 14z m-415 -301 c0 -5 -5
-10 -11 -10 -5 0 -7 5 -4 10 3 6 8 10 11 10 2 0 4 -4 4 -10z"/>
<path d="M6742 574 c-7 -8 -8 -14 -3 -14 10 0 25 19 20 25 -2 1 -10 -3 -17
-11z"/>
<path d="M7186 535 c-3 -8 -1 -15 4 -15 6 0 10 7 10 15 0 8 -2 15 -4 15 -2 0
-6 -7 -10 -15z"/>
<path d="M3150 200 c-16 -16 -30 -34 -30 -40 0 -6 -5 -8 -12 -4 -7 4 -8 3 -4
-5 4 -6 -2 -24 -13 -40 -12 -16 -21 -34 -21 -40 0 -6 -9 -15 -20 -21 -20 -11
-20 -11 0 22 29 48 33 58 27 65 -6 5 -43 -27 -123 -104 l-33 -33 43 0 c27 0
48 6 56 15 7 8 20 15 29 15 23 1 66 41 86 81 10 19 26 42 36 52 17 15 27 67
14 67 -2 0 -18 -13 -35 -30z"/>
<path d="M3502 67 c-18 -18 -32 -42 -32 -52 0 -16 8 -12 40 22 38 40 50 63 32
63 -4 0 -22 -15 -40 -33z"/>
</g>
</svg>
